<mxfile host="Electron" agent="Mozilla/5.0 (Macintosh; Intel Mac OS X 10_15_7) AppleWebKit/537.36 (KHTML, like Gecko) draw.io/26.1.1 Chrome/132.0.6834.210 Electron/34.3.3 Safari/537.36" version="26.1.1">
  <diagram name="PÃ¡gina-1" id="z6vTRzj0kmzRLpqOFKyu">
    <mxGraphModel dx="1434" dy="974" grid="1" gridSize="10" guides="1" tooltips="1" connect="1" arrows="1" fold="1" page="1" pageScale="1" pageWidth="16540" pageHeight="11690" math="0" shadow="0">
      <root>
        <mxCell id="0" />
        <mxCell id="1" parent="0" />
        <mxCell id="SAamHmddQpqkNaCOo8cr-133" value="" style="rounded=1;whiteSpace=wrap;html=1;" parent="1" vertex="1">
          <mxGeometry x="1420" y="190" width="2560" height="1030" as="geometry" />
        </mxCell>
        <mxCell id="SAamHmddQpqkNaCOo8cr-131" value="" style="rounded=0;whiteSpace=wrap;html=1;" parent="1" vertex="1">
          <mxGeometry x="2940" y="290" width="930" height="860" as="geometry" />
        </mxCell>
        <mxCell id="fKZ0gMgpDoCXiPcIjgYh-81" value="" style="rounded=0;whiteSpace=wrap;html=1;fillColor=default;" parent="1" vertex="1">
          <mxGeometry x="1550" y="330" width="1190" height="520" as="geometry" />
        </mxCell>
        <mxCell id="SAamHmddQpqkNaCOo8cr-94" value="" style="edgeStyle=orthogonalEdgeStyle;rounded=0;orthogonalLoop=1;jettySize=auto;html=1;" parent="1" source="fKZ0gMgpDoCXiPcIjgYh-31" target="fKZ0gMgpDoCXiPcIjgYh-32" edge="1">
          <mxGeometry relative="1" as="geometry" />
        </mxCell>
        <mxCell id="fKZ0gMgpDoCXiPcIjgYh-31" value="Projector 1" style="whiteSpace=wrap;html=1;aspect=fixed;" parent="1" vertex="1">
          <mxGeometry x="3400" y="686.5" width="80" height="80" as="geometry" />
        </mxCell>
        <mxCell id="fKZ0gMgpDoCXiPcIjgYh-32" value="ReadModel 1" style="whiteSpace=wrap;html=1;aspect=fixed;fillColor=#d5e8d4;strokeColor=#82b366;" parent="1" vertex="1">
          <mxGeometry x="3516.87" y="686.5" width="80" height="80" as="geometry" />
        </mxCell>
        <mxCell id="fKZ0gMgpDoCXiPcIjgYh-33" value="ReadModel N" style="whiteSpace=wrap;html=1;aspect=fixed;fillColor=#d5e8d4;strokeColor=#82b366;" parent="1" vertex="1">
          <mxGeometry x="3516.87" y="789" width="80" height="80" as="geometry" />
        </mxCell>
        <mxCell id="fKZ0gMgpDoCXiPcIjgYh-34" value="ReadModelStore" style="shape=cylinder3;whiteSpace=wrap;html=1;boundedLbl=1;backgroundOutline=1;size=15;" parent="1" vertex="1">
          <mxGeometry x="2770" y="920" width="140" height="150" as="geometry" />
        </mxCell>
        <mxCell id="fKZ0gMgpDoCXiPcIjgYh-68" value="" style="rounded=0;whiteSpace=wrap;html=1;fillColor=default;" parent="1" vertex="1">
          <mxGeometry x="2002.5" y="880" width="737.5" height="240" as="geometry" />
        </mxCell>
        <mxCell id="fKZ0gMgpDoCXiPcIjgYh-52" value="" style="edgeStyle=orthogonalEdgeStyle;rounded=0;orthogonalLoop=1;jettySize=auto;html=1;" parent="1" source="fKZ0gMgpDoCXiPcIjgYh-53" target="fKZ0gMgpDoCXiPcIjgYh-55" edge="1">
          <mxGeometry relative="1" as="geometry" />
        </mxCell>
        <mxCell id="fKZ0gMgpDoCXiPcIjgYh-53" value="Actor" style="shape=umlActor;verticalLabelPosition=bottom;verticalAlign=top;html=1;outlineConnect=0;" parent="1" vertex="1">
          <mxGeometry x="1932.5" y="930" width="30" height="60" as="geometry" />
        </mxCell>
        <mxCell id="fKZ0gMgpDoCXiPcIjgYh-54" value="" style="edgeStyle=orthogonalEdgeStyle;rounded=0;orthogonalLoop=1;jettySize=auto;html=1;" parent="1" source="fKZ0gMgpDoCXiPcIjgYh-55" target="fKZ0gMgpDoCXiPcIjgYh-57" edge="1">
          <mxGeometry relative="1" as="geometry" />
        </mxCell>
        <mxCell id="fKZ0gMgpDoCXiPcIjgYh-55" value="HTTPRequest" style="whiteSpace=wrap;html=1;aspect=fixed;direction=south;" parent="1" vertex="1">
          <mxGeometry x="2032.5" y="917.5" width="85" height="85" as="geometry" />
        </mxCell>
        <mxCell id="fKZ0gMgpDoCXiPcIjgYh-56" value="" style="edgeStyle=orthogonalEdgeStyle;rounded=0;orthogonalLoop=1;jettySize=auto;html=1;" parent="1" source="fKZ0gMgpDoCXiPcIjgYh-57" target="fKZ0gMgpDoCXiPcIjgYh-59" edge="1">
          <mxGeometry relative="1" as="geometry" />
        </mxCell>
        <mxCell id="fKZ0gMgpDoCXiPcIjgYh-57" value="Query" style="whiteSpace=wrap;html=1;aspect=fixed;" parent="1" vertex="1">
          <mxGeometry x="2162.5" y="917.5" width="85" height="85" as="geometry" />
        </mxCell>
        <mxCell id="fKZ0gMgpDoCXiPcIjgYh-58" value="" style="edgeStyle=orthogonalEdgeStyle;rounded=0;orthogonalLoop=1;jettySize=auto;html=1;" parent="1" source="fKZ0gMgpDoCXiPcIjgYh-59" target="fKZ0gMgpDoCXiPcIjgYh-60" edge="1">
          <mxGeometry relative="1" as="geometry" />
        </mxCell>
        <mxCell id="fKZ0gMgpDoCXiPcIjgYh-59" value="Query Bus&lt;div&gt;&lt;span style=&quot;background-color: transparent; color: light-dark(rgb(0, 0, 0), rgb(255, 255, 255));&quot;&gt;(In memory)&lt;/span&gt;&lt;/div&gt;" style="shape=cylinder3;whiteSpace=wrap;html=1;boundedLbl=1;backgroundOutline=1;size=15;direction=north;" parent="1" vertex="1">
          <mxGeometry x="2282.5" y="941.25" width="120" height="37.5" as="geometry" />
        </mxCell>
        <mxCell id="fKZ0gMgpDoCXiPcIjgYh-63" value="" style="edgeStyle=orthogonalEdgeStyle;rounded=0;orthogonalLoop=1;jettySize=auto;html=1;" parent="1" source="fKZ0gMgpDoCXiPcIjgYh-60" target="fKZ0gMgpDoCXiPcIjgYh-62" edge="1">
          <mxGeometry relative="1" as="geometry" />
        </mxCell>
        <mxCell id="fKZ0gMgpDoCXiPcIjgYh-60" value="Query Handler" style="whiteSpace=wrap;html=1;aspect=fixed;" parent="1" vertex="1">
          <mxGeometry x="2447.5" y="917.5" width="85" height="85" as="geometry" />
        </mxCell>
        <mxCell id="fKZ0gMgpDoCXiPcIjgYh-62" value="ReadModel 1" style="whiteSpace=wrap;html=1;aspect=fixed;fillColor=#d5e8d4;strokeColor=#82b366;" parent="1" vertex="1">
          <mxGeometry x="2592.5" y="920" width="80" height="80" as="geometry" />
        </mxCell>
        <mxCell id="SAamHmddQpqkNaCOo8cr-89" value="" style="edgeStyle=orthogonalEdgeStyle;rounded=0;orthogonalLoop=1;jettySize=auto;html=1;" parent="1" source="fKZ0gMgpDoCXiPcIjgYh-70" target="SAamHmddQpqkNaCOo8cr-31" edge="1">
          <mxGeometry relative="1" as="geometry" />
        </mxCell>
        <mxCell id="fKZ0gMgpDoCXiPcIjgYh-70" value="Polling Job" style="rounded=0;whiteSpace=wrap;html=1;" parent="1" vertex="1">
          <mxGeometry x="2980" y="693.75" width="80" height="60" as="geometry" />
        </mxCell>
        <mxCell id="fKZ0gMgpDoCXiPcIjgYh-76" value="" style="edgeStyle=orthogonalEdgeStyle;rounded=0;orthogonalLoop=1;jettySize=auto;html=1;" parent="1" source="fKZ0gMgpDoCXiPcIjgYh-71" target="fKZ0gMgpDoCXiPcIjgYh-72" edge="1">
          <mxGeometry relative="1" as="geometry" />
        </mxCell>
        <mxCell id="fKZ0gMgpDoCXiPcIjgYh-71" value="" style="whiteSpace=wrap;html=1;aspect=fixed;fillColor=#ffe6cc;strokeColor=#d79b00;" parent="1" vertex="1">
          <mxGeometry x="3080" y="670" width="85" height="85" as="geometry" />
        </mxCell>
        <mxCell id="SAamHmddQpqkNaCOo8cr-87" value="" style="edgeStyle=orthogonalEdgeStyle;rounded=0;orthogonalLoop=1;jettySize=auto;html=1;" parent="1" source="fKZ0gMgpDoCXiPcIjgYh-72" target="fKZ0gMgpDoCXiPcIjgYh-31" edge="1">
          <mxGeometry relative="1" as="geometry" />
        </mxCell>
        <mxCell id="fKZ0gMgpDoCXiPcIjgYh-72" value="InMemory&amp;nbsp;&lt;div&gt;EventBus&lt;/div&gt;" style="shape=cylinder3;whiteSpace=wrap;html=1;boundedLbl=1;backgroundOutline=1;size=15;direction=north;" parent="1" vertex="1">
          <mxGeometry x="3210" y="686.5" width="150" height="80" as="geometry" />
        </mxCell>
        <mxCell id="fKZ0gMgpDoCXiPcIjgYh-84" value="" style="edgeStyle=orthogonalEdgeStyle;rounded=0;orthogonalLoop=1;jettySize=auto;html=1;" parent="1" source="fKZ0gMgpDoCXiPcIjgYh-79" target="fKZ0gMgpDoCXiPcIjgYh-80" edge="1">
          <mxGeometry relative="1" as="geometry" />
        </mxCell>
        <mxCell id="dSyH1Is1BoV67G5oMAas-7" value="" style="edgeStyle=orthogonalEdgeStyle;rounded=0;orthogonalLoop=1;jettySize=auto;html=1;" parent="1" source="fKZ0gMgpDoCXiPcIjgYh-79" target="dSyH1Is1BoV67G5oMAas-6" edge="1">
          <mxGeometry relative="1" as="geometry" />
        </mxCell>
        <mxCell id="fKZ0gMgpDoCXiPcIjgYh-79" value="Aggregate" style="whiteSpace=wrap;html=1;aspect=fixed;fillColor=#fff2cc;strokeColor=#d6b656;" parent="1" vertex="1">
          <mxGeometry x="2092.5" y="539.25" width="85" height="85" as="geometry" />
        </mxCell>
        <mxCell id="fKZ0gMgpDoCXiPcIjgYh-80" value="Event&lt;div&gt;Notification&lt;/div&gt;" style="whiteSpace=wrap;html=1;aspect=fixed;fillColor=#ffe6cc;strokeColor=#d79b00;" parent="1" vertex="1">
          <mxGeometry x="2209.5" y="539.25" width="85" height="85" as="geometry" />
        </mxCell>
        <mxCell id="SAamHmddQpqkNaCOo8cr-85" value="" style="edgeStyle=orthogonalEdgeStyle;rounded=0;orthogonalLoop=1;jettySize=auto;html=1;" parent="1" source="fKZ0gMgpDoCXiPcIjgYh-113" target="fKZ0gMgpDoCXiPcIjgYh-31" edge="1">
          <mxGeometry relative="1" as="geometry" />
        </mxCell>
        <mxCell id="fKZ0gMgpDoCXiPcIjgYh-113" value="" style="whiteSpace=wrap;html=1;aspect=fixed;fillColor=#d5e8d4;strokeColor=#82b366;" parent="1" vertex="1">
          <mxGeometry x="3426.87" y="637.75" width="26.25" height="26.25" as="geometry" />
        </mxCell>
        <mxCell id="fKZ0gMgpDoCXiPcIjgYh-118" value="" style="whiteSpace=wrap;html=1;aspect=fixed;fillColor=#d5e8d4;strokeColor=#82b366;" parent="1" vertex="1">
          <mxGeometry x="3433.25" y="627.75" width="26.25" height="26.25" as="geometry" />
        </mxCell>
        <mxCell id="SAamHmddQpqkNaCOo8cr-37" value="" style="edgeStyle=orthogonalEdgeStyle;rounded=0;orthogonalLoop=1;jettySize=auto;html=1;entryX=0.383;entryY=0.017;entryDx=0;entryDy=0;entryPerimeter=0;" parent="1" source="dSyH1Is1BoV67G5oMAas-6" target="SAamHmddQpqkNaCOo8cr-36" edge="1">
          <mxGeometry relative="1" as="geometry" />
        </mxCell>
        <mxCell id="dSyH1Is1BoV67G5oMAas-6" value="State" style="whiteSpace=wrap;html=1;aspect=fixed;fillColor=#d5e8d4;strokeColor=#82b366;" parent="1" vertex="1">
          <mxGeometry x="2095" y="659.25" width="80" height="80" as="geometry" />
        </mxCell>
        <mxCell id="fKZ0gMgpDoCXiPcIjgYh-117" value="" style="whiteSpace=wrap;html=1;aspect=fixed;fillColor=#d5e8d4;strokeColor=#82b366;" parent="1" vertex="1">
          <mxGeometry x="3439.87" y="620" width="27" height="27" as="geometry" />
        </mxCell>
        <mxCell id="dSyH1Is1BoV67G5oMAas-10" value="" style="shape=cylinder3;whiteSpace=wrap;html=1;boundedLbl=1;backgroundOutline=1;size=15;" parent="1" vertex="1">
          <mxGeometry x="2780" y="653" width="150" height="160" as="geometry" />
        </mxCell>
        <mxCell id="dSyH1Is1BoV67G5oMAas-11" value="Business Models" style="whiteSpace=wrap;html=1;aspect=fixed;" parent="1" vertex="1">
          <mxGeometry x="2790" y="698" width="60" height="60" as="geometry" />
        </mxCell>
        <mxCell id="dSyH1Is1BoV67G5oMAas-12" value="Event Collection" style="whiteSpace=wrap;html=1;aspect=fixed;" parent="1" vertex="1">
          <mxGeometry x="2860" y="698" width="60" height="60" as="geometry" />
        </mxCell>
        <mxCell id="dSyH1Is1BoV67G5oMAas-13" value="Business Store DB" style="text;html=1;align=center;verticalAlign=middle;whiteSpace=wrap;rounded=0;" parent="1" vertex="1">
          <mxGeometry x="2793" y="773" width="110" height="30" as="geometry" />
        </mxCell>
        <mxCell id="p9QUXnx4XuTqDxRvTInu-1" value="" style="edgeStyle=orthogonalEdgeStyle;rounded=0;orthogonalLoop=1;jettySize=auto;html=1;entryX=0;entryY=0.5;entryDx=0;entryDy=0;" parent="1" source="SAamHmddQpqkNaCOo8cr-2" target="SAamHmddQpqkNaCOo8cr-3" edge="1">
          <mxGeometry relative="1" as="geometry" />
        </mxCell>
        <mxCell id="SAamHmddQpqkNaCOo8cr-2" value="InMemory Event" style="whiteSpace=wrap;html=1;aspect=fixed;" parent="1" vertex="1">
          <mxGeometry x="2209.5" y="441.75" width="85" height="85" as="geometry" />
        </mxCell>
        <mxCell id="p9QUXnx4XuTqDxRvTInu-2" value="" style="edgeStyle=orthogonalEdgeStyle;rounded=0;orthogonalLoop=1;jettySize=auto;html=1;" parent="1" source="SAamHmddQpqkNaCOo8cr-3" target="SAamHmddQpqkNaCOo8cr-5" edge="1">
          <mxGeometry relative="1" as="geometry" />
        </mxCell>
        <mxCell id="SAamHmddQpqkNaCOo8cr-3" value="Event Handler" style="whiteSpace=wrap;html=1;aspect=fixed;" parent="1" vertex="1">
          <mxGeometry x="2317.5" y="444" width="80" height="80" as="geometry" />
        </mxCell>
        <mxCell id="SAamHmddQpqkNaCOo8cr-15" value="" style="edgeStyle=orthogonalEdgeStyle;rounded=0;orthogonalLoop=1;jettySize=auto;html=1;" parent="1" source="SAamHmddQpqkNaCOo8cr-5" target="SAamHmddQpqkNaCOo8cr-6" edge="1">
          <mxGeometry relative="1" as="geometry" />
        </mxCell>
        <mxCell id="SAamHmddQpqkNaCOo8cr-17" value="" style="edgeStyle=orthogonalEdgeStyle;rounded=0;orthogonalLoop=1;jettySize=auto;html=1;" parent="1" source="SAamHmddQpqkNaCOo8cr-5" target="SAamHmddQpqkNaCOo8cr-16" edge="1">
          <mxGeometry relative="1" as="geometry" />
        </mxCell>
        <mxCell id="SAamHmddQpqkNaCOo8cr-5" value="Aggregate" style="whiteSpace=wrap;html=1;aspect=fixed;fillColor=#fff2cc;strokeColor=#d6b656;" parent="1" vertex="1">
          <mxGeometry x="2420" y="441.5" width="85" height="85" as="geometry" />
        </mxCell>
        <mxCell id="SAamHmddQpqkNaCOo8cr-6" value="Event&lt;div&gt;Notification&lt;/div&gt;" style="whiteSpace=wrap;html=1;aspect=fixed;fillColor=#ffe6cc;strokeColor=#d79b00;" parent="1" vertex="1">
          <mxGeometry x="2530" y="444" width="85" height="85" as="geometry" />
        </mxCell>
        <mxCell id="SAamHmddQpqkNaCOo8cr-7" value="InMemory Event" style="whiteSpace=wrap;html=1;aspect=fixed;" parent="1" vertex="1">
          <mxGeometry x="2530" y="344" width="85" height="85" as="geometry" />
        </mxCell>
        <mxCell id="SAamHmddQpqkNaCOo8cr-12" value="" style="endArrow=classic;html=1;rounded=0;exitX=0.5;exitY=0;exitDx=0;exitDy=0;entryX=0;entryY=0.5;entryDx=0;entryDy=0;" parent="1" source="fKZ0gMgpDoCXiPcIjgYh-79" target="SAamHmddQpqkNaCOo8cr-2" edge="1">
          <mxGeometry width="50" height="50" relative="1" as="geometry">
            <mxPoint x="2522.5" y="501.75" as="sourcePoint" />
            <mxPoint x="2572.5" y="451.75" as="targetPoint" />
            <Array as="points">
              <mxPoint x="2135.5" y="484.75" />
            </Array>
          </mxGeometry>
        </mxCell>
        <mxCell id="SAamHmddQpqkNaCOo8cr-16" value="State" style="whiteSpace=wrap;html=1;aspect=fixed;fillColor=#d5e8d4;strokeColor=#82b366;" parent="1" vertex="1">
          <mxGeometry x="2422.5" y="544" width="80" height="80" as="geometry" />
        </mxCell>
        <mxCell id="SAamHmddQpqkNaCOo8cr-19" value="" style="endArrow=classic;html=1;rounded=0;entryX=0;entryY=0.5;entryDx=0;entryDy=0;exitX=0.5;exitY=0;exitDx=0;exitDy=0;" parent="1" source="SAamHmddQpqkNaCOo8cr-5" target="SAamHmddQpqkNaCOo8cr-7" edge="1">
          <mxGeometry width="50" height="50" relative="1" as="geometry">
            <mxPoint x="2492.5" y="481.75" as="sourcePoint" />
            <mxPoint x="2542.5" y="431.75" as="targetPoint" />
            <Array as="points">
              <mxPoint x="2460" y="387" />
            </Array>
          </mxGeometry>
        </mxCell>
        <mxCell id="SAamHmddQpqkNaCOo8cr-30" value="" style="whiteSpace=wrap;html=1;aspect=fixed;fillColor=#ffe6cc;strokeColor=#d79b00;" parent="1" vertex="1">
          <mxGeometry x="3090" y="680" width="85" height="85" as="geometry" />
        </mxCell>
        <mxCell id="SAamHmddQpqkNaCOo8cr-31" value="Event&lt;div&gt;Notifications&lt;/div&gt;" style="whiteSpace=wrap;html=1;aspect=fixed;fillColor=#ffe6cc;strokeColor=#d79b00;" parent="1" vertex="1">
          <mxGeometry x="3100" y="690" width="85" height="85" as="geometry" />
        </mxCell>
        <mxCell id="SAamHmddQpqkNaCOo8cr-36" value="DB CONTEXT - BUSINESS MODEL" style="rounded=0;whiteSpace=wrap;html=1;" parent="1" vertex="1">
          <mxGeometry x="2100" y="773" width="630" height="60" as="geometry" />
        </mxCell>
        <mxCell id="SAamHmddQpqkNaCOo8cr-38" value="" style="endArrow=classic;html=1;rounded=0;exitX=0.5;exitY=1;exitDx=0;exitDy=0;" parent="1" source="SAamHmddQpqkNaCOo8cr-16" target="SAamHmddQpqkNaCOo8cr-36" edge="1">
          <mxGeometry width="50" height="50" relative="1" as="geometry">
            <mxPoint x="2552.5" y="681.75" as="sourcePoint" />
            <mxPoint x="2602.5" y="631.75" as="targetPoint" />
          </mxGeometry>
        </mxCell>
        <mxCell id="SAamHmddQpqkNaCOo8cr-40" value="" style="endArrow=classic;html=1;rounded=0;" parent="1" source="fKZ0gMgpDoCXiPcIjgYh-80" target="SAamHmddQpqkNaCOo8cr-36" edge="1">
          <mxGeometry width="50" height="50" relative="1" as="geometry">
            <mxPoint x="2642.5" y="781.75" as="sourcePoint" />
            <mxPoint x="2692.5" y="731.75" as="targetPoint" />
          </mxGeometry>
        </mxCell>
        <mxCell id="SAamHmddQpqkNaCOo8cr-42" value="" style="endArrow=classic;html=1;rounded=0;exitX=0.617;exitY=0.971;exitDx=0;exitDy=0;exitPerimeter=0;" parent="1" source="SAamHmddQpqkNaCOo8cr-6" target="SAamHmddQpqkNaCOo8cr-36" edge="1">
          <mxGeometry width="50" height="50" relative="1" as="geometry">
            <mxPoint x="2822.5" y="821.75" as="sourcePoint" />
            <mxPoint x="2872.5" y="771.75" as="targetPoint" />
          </mxGeometry>
        </mxCell>
        <mxCell id="SAamHmddQpqkNaCOo8cr-44" value="Event Notification Handler" style="whiteSpace=wrap;html=1;aspect=fixed;" parent="1" vertex="1">
          <mxGeometry x="3390" y="395.5" width="80" height="80" as="geometry" />
        </mxCell>
        <mxCell id="SAamHmddQpqkNaCOo8cr-92" value="" style="edgeStyle=orthogonalEdgeStyle;rounded=0;orthogonalLoop=1;jettySize=auto;html=1;" parent="1" source="SAamHmddQpqkNaCOo8cr-46" target="SAamHmddQpqkNaCOo8cr-47" edge="1">
          <mxGeometry relative="1" as="geometry" />
        </mxCell>
        <mxCell id="SAamHmddQpqkNaCOo8cr-93" value="" style="edgeStyle=orthogonalEdgeStyle;rounded=0;orthogonalLoop=1;jettySize=auto;html=1;" parent="1" source="SAamHmddQpqkNaCOo8cr-46" target="SAamHmddQpqkNaCOo8cr-49" edge="1">
          <mxGeometry relative="1" as="geometry" />
        </mxCell>
        <mxCell id="SAamHmddQpqkNaCOo8cr-46" value="Aggregate" style="whiteSpace=wrap;html=1;aspect=fixed;fillColor=#fff2cc;strokeColor=#d6b656;" parent="1" vertex="1">
          <mxGeometry x="3517.5" y="390.5" width="85" height="85" as="geometry" />
        </mxCell>
        <mxCell id="SAamHmddQpqkNaCOo8cr-47" value="Event Notification" style="whiteSpace=wrap;html=1;aspect=fixed;fillColor=#ffe6cc;strokeColor=#d79b00;" parent="1" vertex="1">
          <mxGeometry x="3640" y="390.5" width="85" height="85" as="geometry" />
        </mxCell>
        <mxCell id="SAamHmddQpqkNaCOo8cr-48" value="" style="edgeStyle=orthogonalEdgeStyle;rounded=0;orthogonalLoop=1;jettySize=auto;html=1;entryX=0;entryY=0;entryDx=0;entryDy=0;" parent="1" source="SAamHmddQpqkNaCOo8cr-49" target="SAamHmddQpqkNaCOo8cr-66" edge="1">
          <mxGeometry relative="1" as="geometry" />
        </mxCell>
        <mxCell id="SAamHmddQpqkNaCOo8cr-49" value="State" style="whiteSpace=wrap;html=1;aspect=fixed;fillColor=#d5e8d4;strokeColor=#82b366;" parent="1" vertex="1">
          <mxGeometry x="3520" y="499.25" width="80" height="80" as="geometry" />
        </mxCell>
        <mxCell id="SAamHmddQpqkNaCOo8cr-50" value="InMemory Event" style="whiteSpace=wrap;html=1;aspect=fixed;" parent="1" vertex="1">
          <mxGeometry x="3640" y="300.5" width="85" height="85" as="geometry" />
        </mxCell>
        <mxCell id="SAamHmddQpqkNaCOo8cr-66" value="DB CONTEXT - BUSINESS MODEL" style="rounded=0;whiteSpace=wrap;html=1;" parent="1" vertex="1">
          <mxGeometry x="3560" y="610" width="290" height="60" as="geometry" />
        </mxCell>
        <mxCell id="SAamHmddQpqkNaCOo8cr-69" value="" style="endArrow=classic;html=1;rounded=0;exitX=0.5;exitY=1;exitDx=0;exitDy=0;entryX=0.5;entryY=0;entryDx=0;entryDy=0;" parent="1" source="SAamHmddQpqkNaCOo8cr-47" target="SAamHmddQpqkNaCOo8cr-66" edge="1">
          <mxGeometry width="50" height="50" relative="1" as="geometry">
            <mxPoint x="4100" y="590" as="sourcePoint" />
            <mxPoint x="4150" y="540" as="targetPoint" />
          </mxGeometry>
        </mxCell>
        <mxCell id="SAamHmddQpqkNaCOo8cr-75" value="" style="endArrow=classic;html=1;rounded=0;entryX=0;entryY=0.5;entryDx=0;entryDy=0;exitX=1;exitY=0.5;exitDx=0;exitDy=0;exitPerimeter=0;" parent="1" source="fKZ0gMgpDoCXiPcIjgYh-72" target="SAamHmddQpqkNaCOo8cr-44" edge="1">
          <mxGeometry width="50" height="50" relative="1" as="geometry">
            <mxPoint x="3260" y="570" as="sourcePoint" />
            <mxPoint x="3310" y="520" as="targetPoint" />
            <Array as="points">
              <mxPoint x="3285" y="440" />
            </Array>
          </mxGeometry>
        </mxCell>
        <mxCell id="SAamHmddQpqkNaCOo8cr-76" value="" style="endArrow=classic;html=1;rounded=0;" parent="1" source="dSyH1Is1BoV67G5oMAas-12" target="fKZ0gMgpDoCXiPcIjgYh-70" edge="1">
          <mxGeometry width="50" height="50" relative="1" as="geometry">
            <mxPoint x="3260" y="680" as="sourcePoint" />
            <mxPoint x="3310" y="630" as="targetPoint" />
          </mxGeometry>
        </mxCell>
        <mxCell id="SAamHmddQpqkNaCOo8cr-95" value="" style="edgeStyle=orthogonalEdgeStyle;rounded=0;orthogonalLoop=1;jettySize=auto;html=1;" parent="1" source="SAamHmddQpqkNaCOo8cr-86" target="fKZ0gMgpDoCXiPcIjgYh-33" edge="1">
          <mxGeometry relative="1" as="geometry" />
        </mxCell>
        <mxCell id="SAamHmddQpqkNaCOo8cr-86" value="Projector N" style="whiteSpace=wrap;html=1;aspect=fixed;" parent="1" vertex="1">
          <mxGeometry x="3400" y="789" width="80" height="80" as="geometry" />
        </mxCell>
        <mxCell id="SAamHmddQpqkNaCOo8cr-88" value="" style="endArrow=classic;html=1;rounded=0;exitX=0.145;exitY=1;exitDx=0;exitDy=-4.35;exitPerimeter=0;entryX=0;entryY=0.5;entryDx=0;entryDy=0;" parent="1" source="fKZ0gMgpDoCXiPcIjgYh-72" target="SAamHmddQpqkNaCOo8cr-86" edge="1">
          <mxGeometry width="50" height="50" relative="1" as="geometry">
            <mxPoint x="3640" y="690" as="sourcePoint" />
            <mxPoint x="3690" y="640" as="targetPoint" />
            <Array as="points">
              <mxPoint x="3356" y="830" />
            </Array>
          </mxGeometry>
        </mxCell>
        <mxCell id="SAamHmddQpqkNaCOo8cr-104" value="" style="endArrow=classic;html=1;rounded=0;entryX=0;entryY=0.5;entryDx=0;entryDy=0;exitX=0.5;exitY=0;exitDx=0;exitDy=0;" parent="1" source="SAamHmddQpqkNaCOo8cr-46" target="SAamHmddQpqkNaCOo8cr-50" edge="1">
          <mxGeometry width="50" height="50" relative="1" as="geometry">
            <mxPoint x="3750" y="513" as="sourcePoint" />
            <mxPoint x="3800" y="463" as="targetPoint" />
            <Array as="points">
              <mxPoint x="3560" y="346" />
            </Array>
          </mxGeometry>
        </mxCell>
        <mxCell id="SAamHmddQpqkNaCOo8cr-106" value="" style="edgeStyle=orthogonalEdgeStyle;rounded=0;orthogonalLoop=1;jettySize=auto;html=1;" parent="1" source="SAamHmddQpqkNaCOo8cr-107" target="SAamHmddQpqkNaCOo8cr-109" edge="1">
          <mxGeometry relative="1" as="geometry" />
        </mxCell>
        <mxCell id="SAamHmddQpqkNaCOo8cr-107" value="Actor" style="shape=umlActor;verticalLabelPosition=bottom;verticalAlign=top;html=1;outlineConnect=0;" parent="1" vertex="1">
          <mxGeometry x="1450" y="553" width="30" height="60" as="geometry" />
        </mxCell>
        <mxCell id="SAamHmddQpqkNaCOo8cr-108" value="" style="edgeStyle=orthogonalEdgeStyle;rounded=0;orthogonalLoop=1;jettySize=auto;html=1;" parent="1" source="SAamHmddQpqkNaCOo8cr-109" target="SAamHmddQpqkNaCOo8cr-110" edge="1">
          <mxGeometry relative="1" as="geometry" />
        </mxCell>
        <mxCell id="SAamHmddQpqkNaCOo8cr-109" value="HTTPRequest" style="whiteSpace=wrap;html=1;aspect=fixed;" parent="1" vertex="1">
          <mxGeometry x="1580" y="540.5" width="85" height="85" as="geometry" />
        </mxCell>
        <mxCell id="SAamHmddQpqkNaCOo8cr-115" value="" style="edgeStyle=orthogonalEdgeStyle;rounded=0;orthogonalLoop=1;jettySize=auto;html=1;" parent="1" source="SAamHmddQpqkNaCOo8cr-110" target="SAamHmddQpqkNaCOo8cr-111" edge="1">
          <mxGeometry relative="1" as="geometry" />
        </mxCell>
        <mxCell id="SAamHmddQpqkNaCOo8cr-110" value="Command" style="whiteSpace=wrap;html=1;aspect=fixed;fillColor=#dae8fc;strokeColor=#6c8ebf;" parent="1" vertex="1">
          <mxGeometry x="1710" y="540.5" width="85" height="85" as="geometry" />
        </mxCell>
        <mxCell id="SAamHmddQpqkNaCOo8cr-114" value="" style="edgeStyle=orthogonalEdgeStyle;rounded=0;orthogonalLoop=1;jettySize=auto;html=1;" parent="1" source="SAamHmddQpqkNaCOo8cr-111" target="SAamHmddQpqkNaCOo8cr-112" edge="1">
          <mxGeometry relative="1" as="geometry" />
        </mxCell>
        <mxCell id="SAamHmddQpqkNaCOo8cr-111" value="Command Bus (In Memory)" style="shape=cylinder3;whiteSpace=wrap;html=1;boundedLbl=1;backgroundOutline=1;size=15;direction=north;" parent="1" vertex="1">
          <mxGeometry x="1820" y="563" width="120" height="37.5" as="geometry" />
        </mxCell>
        <mxCell id="SAamHmddQpqkNaCOo8cr-113" value="" style="edgeStyle=orthogonalEdgeStyle;rounded=0;orthogonalLoop=1;jettySize=auto;html=1;" parent="1" source="SAamHmddQpqkNaCOo8cr-112" target="fKZ0gMgpDoCXiPcIjgYh-79" edge="1">
          <mxGeometry relative="1" as="geometry" />
        </mxCell>
        <mxCell id="SAamHmddQpqkNaCOo8cr-112" value="Command Handler" style="whiteSpace=wrap;html=1;aspect=fixed;" parent="1" vertex="1">
          <mxGeometry x="1970" y="539.25" width="85" height="85" as="geometry" />
        </mxCell>
        <mxCell id="SAamHmddQpqkNaCOo8cr-116" value="DB CONTEXT - READ MODEL" style="rounded=0;whiteSpace=wrap;html=1;" parent="1" vertex="1">
          <mxGeometry x="2030" y="1030" width="642.5" height="60" as="geometry" />
        </mxCell>
        <mxCell id="SAamHmddQpqkNaCOo8cr-117" value="DB CONTEXT&lt;div&gt;&lt;span style=&quot;background-color: transparent; color: light-dark(rgb(0, 0, 0), rgb(255, 255, 255));&quot;&gt;READMODEL&lt;/span&gt;&lt;/div&gt;" style="rounded=0;whiteSpace=wrap;html=1;" parent="1" vertex="1">
          <mxGeometry x="3632.5" y="860" width="160" height="60" as="geometry" />
        </mxCell>
        <mxCell id="SAamHmddQpqkNaCOo8cr-119" value="" style="endArrow=classic;html=1;rounded=0;entryX=0.25;entryY=0;entryDx=0;entryDy=0;exitX=0.5;exitY=1;exitDx=0;exitDy=0;" parent="1" source="fKZ0gMgpDoCXiPcIjgYh-32" target="SAamHmddQpqkNaCOo8cr-117" edge="1">
          <mxGeometry width="50" height="50" relative="1" as="geometry">
            <mxPoint x="3460" y="760" as="sourcePoint" />
            <mxPoint x="3510" y="710" as="targetPoint" />
            <Array as="points">
              <mxPoint x="3557" y="780" />
              <mxPoint x="3670" y="780" />
            </Array>
          </mxGeometry>
        </mxCell>
        <mxCell id="SAamHmddQpqkNaCOo8cr-120" value="" style="endArrow=classic;html=1;rounded=0;exitX=1;exitY=0.5;exitDx=0;exitDy=0;entryX=0.007;entryY=0.56;entryDx=0;entryDy=0;entryPerimeter=0;" parent="1" source="fKZ0gMgpDoCXiPcIjgYh-33" target="SAamHmddQpqkNaCOo8cr-117" edge="1">
          <mxGeometry width="50" height="50" relative="1" as="geometry">
            <mxPoint x="3540" y="830" as="sourcePoint" />
            <mxPoint x="3590" y="780" as="targetPoint" />
            <Array as="points">
              <mxPoint x="3610" y="830" />
              <mxPoint x="3610" y="894" />
            </Array>
          </mxGeometry>
        </mxCell>
        <mxCell id="SAamHmddQpqkNaCOo8cr-123" value="" style="endArrow=classic;html=1;rounded=0;exitX=0.5;exitY=1;exitDx=0;exitDy=0;" parent="1" source="SAamHmddQpqkNaCOo8cr-117" target="fKZ0gMgpDoCXiPcIjgYh-34" edge="1">
          <mxGeometry width="50" height="50" relative="1" as="geometry">
            <mxPoint x="3050" y="650" as="sourcePoint" />
            <mxPoint x="3100" y="600" as="targetPoint" />
            <Array as="points">
              <mxPoint x="3713" y="1000" />
            </Array>
          </mxGeometry>
        </mxCell>
        <mxCell id="SAamHmddQpqkNaCOo8cr-124" value="" style="endArrow=none;dashed=1;html=1;dashPattern=1 3;strokeWidth=2;rounded=0;exitX=1;exitY=0.5;exitDx=0;exitDy=0;" parent="1" source="SAamHmddQpqkNaCOo8cr-7" target="SAamHmddQpqkNaCOo8cr-125" edge="1">
          <mxGeometry width="50" height="50" relative="1" as="geometry">
            <mxPoint x="2713" y="386.5" as="sourcePoint" />
            <mxPoint x="2890" y="610" as="targetPoint" />
          </mxGeometry>
        </mxCell>
        <mxCell id="SAamHmddQpqkNaCOo8cr-125" value="" style="whiteSpace=wrap;html=1;aspect=fixed;" parent="1" vertex="1">
          <mxGeometry x="2640" y="345.5" width="80" height="80" as="geometry" />
        </mxCell>
        <mxCell id="XQNY-CrhdEzqbrSW7VPC-1" value="" style="endArrow=classic;html=1;rounded=0;exitX=0.939;exitY=0.024;exitDx=0;exitDy=0;exitPerimeter=0;" parent="1" source="SAamHmddQpqkNaCOo8cr-116" target="fKZ0gMgpDoCXiPcIjgYh-62" edge="1">
          <mxGeometry width="50" height="50" relative="1" as="geometry">
            <mxPoint x="2680" y="910" as="sourcePoint" />
            <mxPoint x="2730" y="860" as="targetPoint" />
          </mxGeometry>
        </mxCell>
        <mxCell id="XQNY-CrhdEzqbrSW7VPC-3" value="ReservationBounded Context" style="text;html=1;align=center;verticalAlign=middle;whiteSpace=wrap;rounded=0;" parent="1" vertex="1">
          <mxGeometry x="1520" y="233" width="160" height="30" as="geometry" />
        </mxCell>
        <mxCell id="p9QUXnx4XuTqDxRvTInu-4" value="Long Transactions" style="shape=card;whiteSpace=wrap;html=1;fillColor=#f8cecc;strokeColor=#b85450;" parent="1" vertex="1">
          <mxGeometry x="1530" y="290" width="80" height="100" as="geometry" />
        </mxCell>
        <mxCell id="p9QUXnx4XuTqDxRvTInu-5" value="Escaling Issues" style="shape=card;whiteSpace=wrap;html=1;fillColor=#f8cecc;strokeColor=#b85450;" parent="1" vertex="1">
          <mxGeometry x="2910" y="250" width="80" height="100" as="geometry" />
        </mxCell>
        <mxCell id="p9QUXnx4XuTqDxRvTInu-6" value="" style="endArrow=classic;html=1;rounded=0;entryX=0;entryY=0.5;entryDx=0;entryDy=0;exitX=1;exitY=0.5;exitDx=0;exitDy=0;" parent="1" source="SAamHmddQpqkNaCOo8cr-44" target="SAamHmddQpqkNaCOo8cr-46" edge="1">
          <mxGeometry width="50" height="50" relative="1" as="geometry">
            <mxPoint x="3470" y="500" as="sourcePoint" />
            <mxPoint x="3520" y="450" as="targetPoint" />
          </mxGeometry>
        </mxCell>
        <mxCell id="p9QUXnx4XuTqDxRvTInu-7" value="" style="whiteSpace=wrap;html=1;aspect=fixed;" parent="1" vertex="1">
          <mxGeometry x="3760" y="303" width="80" height="80" as="geometry" />
        </mxCell>
        <mxCell id="p9QUXnx4XuTqDxRvTInu-10" value="" style="endArrow=none;dashed=1;html=1;dashPattern=1 3;strokeWidth=2;rounded=0;entryX=0;entryY=0.5;entryDx=0;entryDy=0;" parent="1" source="SAamHmddQpqkNaCOo8cr-50" target="p9QUXnx4XuTqDxRvTInu-7" edge="1">
          <mxGeometry width="50" height="50" relative="1" as="geometry">
            <mxPoint x="3320" y="530" as="sourcePoint" />
            <mxPoint x="3370" y="480" as="targetPoint" />
          </mxGeometry>
        </mxCell>
        <mxCell id="p9QUXnx4XuTqDxRvTInu-11" value="" style="endArrow=classic;html=1;rounded=0;entryX=0;entryY=0.5;entryDx=0;entryDy=0;exitX=0.996;exitY=0.619;exitDx=0;exitDy=0;exitPerimeter=0;entryPerimeter=0;" parent="1" source="SAamHmddQpqkNaCOo8cr-36" target="dSyH1Is1BoV67G5oMAas-10" edge="1">
          <mxGeometry width="50" height="50" relative="1" as="geometry">
            <mxPoint x="2880" y="810" as="sourcePoint" />
            <mxPoint x="2930" y="760" as="targetPoint" />
            <Array as="points">
              <mxPoint x="2727" y="733" />
            </Array>
          </mxGeometry>
        </mxCell>
        <mxCell id="p9QUXnx4XuTqDxRvTInu-12" value="" style="endArrow=classic;html=1;rounded=0;entryX=1;entryY=0.5;entryDx=0;entryDy=0;exitX=0;exitY=0;exitDx=0;exitDy=105;exitPerimeter=0;" parent="1" source="fKZ0gMgpDoCXiPcIjgYh-34" target="SAamHmddQpqkNaCOo8cr-116" edge="1">
          <mxGeometry width="50" height="50" relative="1" as="geometry">
            <mxPoint x="2930" y="810" as="sourcePoint" />
            <mxPoint x="2980" y="760" as="targetPoint" />
            <Array as="points">
              <mxPoint x="2770" y="1060" />
            </Array>
          </mxGeometry>
        </mxCell>
      </root>
    </mxGraphModel>
  </diagram>
</mxfile>
